<?xml version="1.0" encoding="utf-8"?>
<!-- Generator: Adobe Illustrator 21.0.2, SVG Export Plug-In . SVG Version: 6.00 Build 0)  -->
<svg version="1.1" id="Layer_1" xmlns="http://www.w3.org/2000/svg" xmlns:xlink="http://www.w3.org/1999/xlink" x="0px" y="0px"
	 viewBox="0 0 450 450" style="enable-background:new 0 0 450 450;" xml:space="preserve">
<style type="text/css">
	.st0{fill:#FFFFFF;}
	.st1{clip-path:url(#SVGID_2_);}
	.st2{fill:#FDD4A6;}
	.st3{fill:#F0BC87;}
	.st4{fill:#CD986A;}
	.st5{fill:#FFEAC9;}
	.st6{opacity:0.2;}
	.st7{fill:#FFC628;}
	.st8{fill:#42a5f5;}
	.st9{opacity:0.4;}
	.st10{fill:#73C9EE;}
	.st11{opacity:0.5;}
	.st12{fill:#41444C;}
	.st13{clip-path:url(#SVGID_4_);}
	.st14{fill:#DEDEDE;}
	.st15{fill:#3E4756;}
	.st16{fill:#596370;}
	.st17{fill:#FFDD50;}
	.st18{fill:none;stroke:#64b5f6;stroke-width:10;stroke-miterlimit:10;}
	.st19{display:none;}
	.st20{display:inline;}
	.st21{fill:#F56600;}
	.st22{fill:#C14F02;}
	.st23{fill:#A06C20;}
</style>
<circle class="st0" cx="229.9" cy="222.1" r="175"/>
<g>
	<g>
		<g>
			<g>
				<defs>
					<circle id="SVGID_1_" cx="228.8" cy="222.1" r="175"/>
				</defs>
				<clipPath id="SVGID_2_">
					<use xlink:href="#SVGID_1_"  style="overflow:visible;"/>
				</clipPath>
				<g class="st1">
					<g>
						<g>
							<g>
								<path class="st2" d="M418.8,376.2l-22.6-24.1c-6-6.3-10.2-14.7-10.2-14.7c-7.7-18.5-14.6-32.1-14.6-32.1
									c-2.3-3.1-8.7-18.4-8.7-18.4c-1.5-7.1-9.4-8.1-9.4-8.1c-5.5-1.1-12.5-3.7-12.5-3.7c-8.7-4.9-32.7-11.6-32.7-11.6
									c-9.2-2.4-12.4,2.3-12.4,2.3l-5.2,5.1l12.6,7.6l26.3,25c19,9.3,22.8,12.6,22.8,12.6c-6.3,14.8-32.7-17-32.7-17
									c-4.6-7-17.8-19.5-17.8-19.5c-9.9-10.7-19.3-3.3-19.3-3.3c-8.4,9-0.5,22.2-0.5,22.2l9.6,12.3c3.3,4.3,13.1,12.5,13.1,12.5
									c11.4,10.6,19.1,26.8,19.1,26.8c2.2,5.6,5.6,14.4,5.6,14.4c8,14.1,26.2,19.2,26.2,19.2c0.9,1,13.4,9.1,13.4,9.1
									c17.9,9.9,38.2,26.2,43.1,33L418.8,376.2z"/>
							</g>
						</g>
					</g>
					<g>
						<g>
							<g>
								<path class="st3" d="M289.3,307.1c0,0-3,7.3-3.1,10.3l-0.8,11.7c0,0,1.6,11.5,6.9,14.9c0,0,5.5,11.1,9.3,10.4
									c0,0,3.5,2.7,7.2-3.3c0,0,11,10.9,17.3,4.4C326.2,355.5,356.8,338.9,289.3,307.1z"/>
							</g>
						</g>
					</g>
					<g>
						<g>
							<g>
								<path class="st3" d="M281.8,277.1c0,0-8.7,8-11.1,16.6c0,0-1.5,5.5-0.8,9.3c0,0-3.5,15.3,2.1,18c0,0,11.3,3.8,16.1-15.5
									L281.8,277.1z"/>
							</g>
						</g>
					</g>
					<g>
						<g>
							<g>
								<path class="st3" d="M286,274.5c0,0,8.4-2.9,15.1,4.5l6,6c0,0,9.5,9.1,12.3,14.2c0,0,15.5,17.9,24.5,20.3
									c0,0,10.9,5.3,13.8,2.4c0,0,4.9-4.8-3.4-17.3c0,0-3.8-19.2-15.8-17.1c0,0-29.6,3.2-34.4-15c0,0-0.2,7.3-7.4-0.6
									c0,0-1.3,1.6-5.9-1.4L286,274.5z"/>
							</g>
						</g>
					</g>
					<g>
						<g>
							<g>
								<path class="st4" d="M309.8,287.8c0,0,7.5,8,9.5,11.5c0,0,20.8,24.4,29.6,20.3c0,0-11.9-2.2-8.7-6.9c0,0,11.1-11.7-1.4-2.1
									c0,0-4,2.3-5.8-1.9c0,0-2.8-0.1-1-3.6c0,0-9.7,1-7.7-5.8c0,0,0.3-2,4.3-5.8C328.7,293.4,320.4,299.1,309.8,287.8z"/>
							</g>
						</g>
					</g>
					<g>
						<g>
							<g>
								<path class="st4" d="M273.5,321.3c11.4,0.3,14.4-15.3,14.4-15.3c-6.3-6.9-8.7-14.3-8.7-14.3s2.5,8.8,3.2,13
									c0,0,1.3,9.5-7.7,15.4L273.5,321.3z"/>
							</g>
						</g>
					</g>
					<g>
						<g>
							<g>
								<path class="st4" d="M308.8,351.1c0,0,4.5-7.5-3.2-16.8c0,0,1.1-7.4-0.4-10.5c0,0,3.6,2.8,5.8,6.3c0,0-1.6,2.8-0.7,4.5
									C312.2,337.8,313.1,347.2,308.8,351.1z"/>
							</g>
						</g>
					</g>
					<g>
						<g>
							<g>
								<path class="st4" d="M328.7,293.4c0,0-1,15.3,16,13.3c0,0-8,11.9-16.3-0.2l-4.7-3.4l-0.3-3.9
									C323.4,299.2,327.3,294,328.7,293.4z"/>
							</g>
						</g>
					</g>
					<g>
						<g>
							<g>
								<path class="st5" d="M300.1,284.4c-0.1-0.1-0.1-0.2-0.2-0.4l-4.3-5.1c-1.3-1.6-3.6-1.7-5.2-0.3l-6.7,6.2
									c-1.5,1.4-1.7,3.8-0.3,5.4l4.3,5.1c0.2,0.3,0.5,0.5,0.8,0.7c0.5,0.4,5.2,4.4,10,0.4C298.4,296.3,304.9,291.1,300.1,284.4z"
									/>
							</g>
						</g>
					</g>
					<g>
						<g>
							<g>
								<path class="st2" d="M269.9,303c0,0-3,11.6,0.6,16.7c0,0,2.8,0.1,3.6-14.1C274.1,305.6,274.6,303.3,269.9,303z"/>
							</g>
						</g>
					</g>
					<g>
						<g>
							<g>
								<path class="st2" d="M292.3,344.1c0,0,5.6,11.4,9.3,10.4c0,0,1.5-3-4-10.3C297.6,344.2,296.5,341.6,292.3,344.1z"/>
							</g>
						</g>
					</g>
					<g>
						<g>
							<g>
								<path class="st2" d="M308.8,351.1c0,0,5.4,5.1,9.4,5.9c0,0,3.1-2.6-4.5-8.3C313.8,348.7,311.6,346.7,308.8,351.1z"/>
							</g>
						</g>
					</g>
					<g>
						<g class="st6">
							<g>
								<path d="M243.7,135.9c-24.3-29.2-66.9-32.3-95-6.9s-31.2,69.6-6.9,98.8s66.8,32.3,95,6.9C264.9,209.3,268,165.1,243.7,135.9
									z M228.5,224.7c-22.9,20.6-57.4,18.1-77.1-5.6c-19.8-23.7-17.3-59.6,5.6-80.2c22.8-20.6,57.4-18.1,77.1,5.6
									C253.9,168.2,251.4,204.1,228.5,224.7z"/>
							</g>
						</g>
						<g>
							<g>
								<g>
									<path class="st7" d="M244.3,242.1c-2.4,2.2-3.9,0.8-6.5,2.5l14.8,17.2l13.3-12.2l-13.5-16.2
										C250,236.5,247.3,239.4,244.3,242.1z"/>
								</g>
							</g>
						</g>
						<g>
							<g>
								<path class="st8" d="M251.9,128.5c-28.2-33.9-77.6-37.5-110.2-8s-36.2,80.8-8,114.7s77.6,37.4,110.2,8
									C276.5,213.7,280.1,162.4,251.9,128.5z M234.3,231.6c-26.5,23.9-66.6,21-89.5-6.5s-20-69.2,6.5-93.1s66.6-21,89.5,6.5
									S260.8,207.7,234.3,231.6z"/>
							</g>
						</g>
						<g>
							<g class="st9">
								<g>
									<path class="st10" d="M196.5,116c-35-2.1-65,25.7-67.1,62.1c-2.1,36.4,24.6,67.5,59.5,69.6c35,2.1,65-25.7,67.1-62.1
										C258.1,149.2,231.5,118.1,196.5,116z"/>
								</g>
							</g>
							<g class="st11">
								<g>
									<path class="st0" d="M238.7,185.1c0,0.5-0.1,0.9-0.1,1.3l-32.1-2.8c0-0.2,0.1-0.3,0.1-0.5c0.4-7.6-4.1-14.3-10.6-16.8
										l11.4-31.5C226.7,142.4,240,162.4,238.7,185.1z"/>
								</g>
							</g>
						</g>
						<g>
							<path class="st12" d="M340.2,335.4l-15.7,14.3c-2.7,2.4-6.8,2.2-9.1-0.6l-68.8-81.7c-2.3-2.8-2.1-7,0.6-9.5l15.7-14.3
								c2.7-2.4,6.8-2.2,9.1,0.6l68.8,81.7C343.2,328.6,342.9,332.9,340.2,335.4z"/>
						</g>
					</g>
					<g>
						<g>
							<g>
								<g>
									<g>
										<path class="st2" d="M345.9,320c-10-1.1-26.4-20.8-26.4-20.8c-4.6-7-17.8-19.5-17.8-19.5c-9.9-10.7-19.3-3.3-19.3-3.3
											c-8.4,9-0.5,22.2-0.5,22.2l9.6,12.3c3.3,4.3,13.1,12.5,13.1,12.5c11.4,10.6,19.1,26.8,19.1,26.8
											c2.2,5.6,4.9,11.6,4.9,11.6c5.5,9.7,16.2,16.5,22.3,19.8C353.6,361.8,347.8,329.5,345.9,320z"/>
									</g>
								</g>
							</g>
						</g>
						<g>
							<g>
								<g>
									<path class="st3" d="M308.3,303.8c-3,3.4-5.8,5.9-6.2,5.4c-0.4-0.4,1.6-3.5,4.7-6.9c3-3.4,5.8-5.9,6.2-5.5
										C313.4,297.3,311.3,300.4,308.3,303.8z"/>
								</g>
							</g>
						</g>
						<g>
							<g>
								<g>
									<path class="st3" d="M313.6,308.5c-3,3.4-5.8,5.9-6.2,5.4c-0.4-0.4,1.6-3.5,4.7-7c3-3.4,5.8-5.9,6.2-5.4
										S316.6,305.1,313.6,308.5z"/>
								</g>
							</g>
						</g>
						<g>
							<g>
								<g>
									<path class="st3" d="M310.3,305.8c-2.3,2.7-4.5,4.6-4.8,4.2c-0.3-0.3,1.3-2.7,3.6-5.4c2.3-2.7,4.5-4.6,4.9-4.2
										C314.3,300.8,312.7,303.2,310.3,305.8z"/>
								</g>
							</g>
						</g>
						<g>
							<g>
								<g>
									<path class="st5" d="M300.1,284.4c-0.1-0.1-0.1-0.2-0.2-0.4l-4.3-5.1c-1.3-1.6-3.6-1.7-5.2-0.3l-6.7,6.2
										c-1.5,1.4-1.7,3.8-0.3,5.4l4.3,5.1c0.2,0.3,0.5,0.5,0.8,0.7c0.5,0.4,5.2,4.4,10,0.4C298.4,296.3,304.9,291.1,300.1,284.4z"
										/>
								</g>
							</g>
						</g>
					</g>
				</g>
			</g>
		</g>
	</g>
	<g>
		<g>
			<g>
				<defs>
					<circle id="SVGID_3_" cx="228.8" cy="222.1" r="175"/>
				</defs>
				<clipPath id="SVGID_4_">
					<use xlink:href="#SVGID_3_"  style="overflow:visible;"/>
				</clipPath>
				<g class="st13">
					<g>
						<g>
							<g>
								<polygon class="st14" points="391.3,427.9 373.8,416.9 414.4,346.7 432,357.7 								"/>
							</g>
						</g>
					</g>
					<polygon class="st15" points="457.9,457 457.9,356.8 438.7,344.9 383.2,440.8 409.3,457 					"/>
					<polygon class="st16" points="457.9,457 457.9,422 411,392.8 383.2,440.8 409.1,457 					"/>
					<g>
						<g>
							<g>
								<path class="st17" d="M418.8,439.7c-2.1,3.7-6.8,4.9-10.3,2.7c-3.6-2.2-4.7-7.1-2.6-10.7c2.1-3.7,6.8-4.9,10.3-2.7
									C419.8,431.2,421,436,418.8,439.7z"/>
							</g>
						</g>
					</g>
				</g>
			</g>
		</g>
	</g>
</g>
<circle class="st18" cx="229.9" cy="222.1" r="175"/>
<g class="st19">
	<g class="st20">
		<g>
			<g>
				<g>
					<path class="st21" d="M268.4,139.6c0-0.4,0-0.7-0.1-1.1c-0.1-0.4-0.2-0.7-0.4-1.1c0-0.1,0-0.1-0.1-0.2
						c-0.4-0.8-0.9-1.5-1.6-2.1l0,0c0,0-0.1,0-0.1-0.1l0,0l0,0c-1.2-1-2.7-1.7-4.3-1.7l0,0H120.7l0,0c-1.7,0-3.2,0.7-4.4,1.7
						c-1.3,1.1-2.1,2.7-2.1,4.5l0,0v0.3v92.7c0,2.3,1.3,4.4,3.1,5.6l0,0c0.3,0.2,0.7,0.4,1,0.5c0.1,0,0.2,0.1,0.3,0.1
						c0.3,0.1,0.5,0.2,0.8,0.2c0.4,0.1,0.8,0.1,1.3,0.1h23.2v26.8l28.6-26.8h89.4c1.6,0,3-0.6,4.2-1.5l0,0c0,0,0,0,0.1-0.1
						c0.1,0,0.1-0.1,0.2-0.1l0,0c1.3-1.2,2.2-2.9,2.2-4.8v-92.7L268.4,139.6L268.4,139.6z"/>
				</g>
			</g>
			<g>
				<g>
					<g>
						<path class="st22" d="M179.5,186.2c0,6.5,5.3,11.8,11.8,11.8s11.8-5.3,11.8-11.8s-5.3-11.8-11.8-11.8S179.5,179.7,179.5,186.2
							z"/>
					</g>
				</g>
				<g>
					<g>
						<g>
							<g>
								<g>
									<g>
										<g>
											<path class="st22" d="M221.2,186.2c0,6.5,5.3,11.8,11.8,11.8s11.8-5.3,11.8-11.8s-5.3-11.8-11.8-11.8
												C226.4,174.4,221.2,179.7,221.2,186.2z"/>
										</g>
									</g>
								</g>
							</g>
						</g>
					</g>
				</g>
				<g>
					<g>
						<path class="st22" d="M137.9,186.2c0,6.5,5.3,11.8,11.8,11.8s11.8-5.3,11.8-11.8s-5.3-11.8-11.8-11.8S137.9,179.7,137.9,186.2
							z"/>
					</g>
				</g>
			</g>
		</g>
		<g>
			<g>
				<g>
					<g>
						<g>
							<g>
								<g>
									<g>
										<path class="st8" d="M345.6,200.9c-0.1-1.8-0.9-3.4-2.1-4.5s-2.7-1.7-4.4-1.7l0,0H197.9l0,0c-1.7,0-3.1,0.6-4.3,1.7l0,0
											c0,0,0,0-0.1,0.1l0,0c-0.7,0.6-1.2,1.3-1.6,2.1c0,0.1,0,0.1-0.1,0.2c-0.1,0.4-0.3,0.7-0.4,1.1c-0.1,0.4-0.1,0.7-0.1,1.1
											l0,0v0.3V294c0,1.9,0.9,3.6,2.2,4.8l0,0c0.1,0,0.1,0.1,0.2,0.1c0,0,0,0,0.1,0.1l0,0c1.1,1,2.6,1.6,4.2,1.6h89.4l28.6,26.8
											v-26.8h23.2c0.4,0,0.9,0,1.3-0.1c0.3-0.1,0.6-0.2,0.8-0.2c0.1,0,0.2-0.1,0.3-0.1c0.4-0.1,0.7-0.3,1-0.5l0,0
											c1.9-1.2,3.1-3.2,3.1-5.6v-92.7L345.6,200.9L345.6,200.9z"/>
									</g>
								</g>
							</g>
						</g>
					</g>
				</g>
			</g>
			<g>
				<g>
					<g>
						<g>
							<g>
								<g>
									<g>
										<g>
											<path class="st23" d="M280.2,247.6c0,6.5-5.3,11.8-11.8,11.8s-11.8-5.3-11.8-11.8s5.3-11.8,11.8-11.8
												C275,235.8,280.2,241.1,280.2,247.6z"/>
										</g>
									</g>
								</g>
							</g>
						</g>
					</g>
				</g>
				<g>
					<g>
						<g>
							<g>
								<g>
									<g>
										<g>
											<path class="st23" d="M238.6,247.6c0,6.5-5.3,11.8-11.8,11.8s-11.8-5.3-11.8-11.8s5.3-11.8,11.8-11.8
												C233.3,235.8,238.6,241.1,238.6,247.6z"/>
										</g>
									</g>
								</g>
							</g>
						</g>
					</g>
				</g>
				<g>
					<g>
						<g>
							<g>
								<g>
									<g>
										<g>
											<path class="st23" d="M321.9,247.6c0,6.5-5.3,11.8-11.8,11.8s-11.8-5.3-11.8-11.8s5.3-11.8,11.8-11.8
												C316.6,235.8,321.9,241.1,321.9,247.6z"/>
										</g>
									</g>
								</g>
							</g>
						</g>
					</g>
				</g>
			</g>
		</g>
	</g>
</g>
</svg>
